<svg xmlns="http://www.w3.org/2000/svg" width="480" height="320" viewBox="0 0 480 320">
    <defs>
      <linearGradient id="g" x1="0" y1="0" x2="1" y2="1">
        <stop offset="0" stop-color="#080c13"/><stop offset="1" stop-color="#121a26"/>
      </linearGradient>
      <linearGradient id="e" x1="0" y1="0" x2="1" y2="1">
        <stop offset="0" stop-color="#4d8bff" stop-opacity=".62"/><stop offset="1" stop-color="#c3d8ff" stop-opacity=".16"/>
      </linearGradient>
      <pattern id="p" width="10" height="10" patternUnits="userSpaceOnUse">
        <path d="M10 0H0V10" fill="none" stroke="#c3d8ff" stroke-opacity=".07" stroke-width=".7"/>
      </pattern>
    </defs>
    <rect width="480" height="320" rx="18" fill="url(#g)"/>
    <rect x="14" y="14" width="452" height="292" rx="11" fill="#0a0f16" stroke="#4d8bff" stroke-opacity=".5"/>
    <rect x="20" y="20" width="440" height="280" rx="8" fill="url(#p)"/>
    <rect x="85" y="123" width="77" height="50" rx="2" fill="#c3d8ff" opacity="0.19"/><rect x="218" y="157" width="60" height="54" rx="2" fill="#c3d8ff" opacity="0.12"/><rect x="198" y="78" width="45" height="15" rx="2" fill="#c3d8ff" opacity="0.28"/><rect x="265" y="204" width="35" height="36" rx="2" fill="#c3d8ff" opacity="0.18"/><rect x="95" y="119" width="61" height="54" rx="2" fill="#c3d8ff" opacity="0.21"/><rect x="48" y="57" width="72" height="49" rx="2" fill="#c3d8ff" opacity="0.14"/><rect x="179" y="98" width="78" height="49" rx="2" fill="#c3d8ff" opacity="0.25"/><rect x="258" y="138" width="40" height="42" rx="2" fill="#c3d8ff" opacity="0.23"/><rect x="326" y="46" width="23" height="55" rx="2" fill="#c3d8ff" opacity="0.12"/><rect x="142" y="192" width="71" height="45" rx="2" fill="#c3d8ff" opacity="0.22"/><rect x="86" y="70" width="45" height="19" rx="2" fill="#c3d8ff" opacity="0.12"/><rect x="313" y="206" width="77" height="52" rx="2" fill="#c3d8ff" opacity="0.18"/><rect x="343" y="220" width="45" height="54" rx="2" fill="#c3d8ff" opacity="0.25"/><rect x="209" y="212" width="39" height="25" rx="2" fill="#c3d8ff" opacity="0.26"/><rect x="167" y="55" width="50" height="17" rx="2" fill="#c3d8ff" opacity="0.18"/><rect x="320" y="72" width="24" height="25" rx="2" fill="#c3d8ff" opacity="0.24"/><rect x="269" y="33" width="61" height="17" rx="2" fill="#c3d8ff" opacity="0.21"/><rect x="36" y="20" width="47" height="28" rx="2" fill="#c3d8ff" opacity="0.17"/><rect x="124" y="215" width="18" height="53" rx="2" fill="#c3d8ff" opacity="0.20"/><rect x="261" y="20" width="32" height="29" rx="2" fill="#c3d8ff" opacity="0.17"/><rect x="282" y="86" width="30" height="43" rx="2" fill="#c3d8ff" opacity="0.26"/><rect x="185" y="182" width="63" height="14" rx="2" fill="#c3d8ff" opacity="0.28"/><rect x="219" y="23" width="42" height="20" rx="2" fill="#c3d8ff" opacity="0.21"/><rect x="264" y="237" width="65" height="14" rx="2" fill="#c3d8ff" opacity="0.30"/><rect x="66" y="60" width="36" height="18" rx="2" fill="#c3d8ff" opacity="0.31"/><rect x="165" y="64" width="72" height="42" rx="2" fill="#c3d8ff" opacity="0.24"/><rect x="79" y="109" width="49" height="29" rx="2" fill="#c3d8ff" opacity="0.22"/><rect x="313" y="160" width="78" height="18" rx="2" fill="#c3d8ff" opacity="0.32"/><rect x="32" y="162" width="20" height="53" rx="2" fill="#c3d8ff" opacity="0.28"/><rect x="173" y="146" width="44" height="22" rx="2" fill="#c3d8ff" opacity="0.29"/><rect x="136" y="52" width="58" height="40" rx="2" fill="#c3d8ff" opacity="0.33"/><rect x="24" y="148" width="54" height="14" rx="2" fill="#c3d8ff" opacity="0.14"/><rect x="44" y="100" width="29" height="32" rx="2" fill="#c3d8ff" opacity="0.13"/><rect x="127" y="170" width="77" height="30" rx="2" fill="#c3d8ff" opacity="0.32"/><rect x="62" y="52" width="29" height="51" rx="2" fill="#c3d8ff" opacity="0.10"/><rect x="126" y="190" width="28" height="54" rx="2" fill="#c3d8ff" opacity="0.10"/><rect x="41" y="162" width="53" height="27" rx="2" fill="#c3d8ff" opacity="0.15"/><rect x="237" y="151" width="18" height="43" rx="2" fill="#c3d8ff" opacity="0.18"/><rect x="300" y="30" width="79" height="12" rx="2" fill="#c3d8ff" opacity="0.23"/><rect x="253" y="58" width="44" height="33" rx="2" fill="#c3d8ff" opacity="0.12"/><rect x="246" y="48" width="64" height="12" rx="2" fill="#c3d8ff" opacity="0.33"/><rect x="347" y="243" width="43" height="20" rx="2" fill="#c3d8ff" opacity="0.29"/>
    <rect x="26" y="26" width="202" height="124" rx="6" fill="url(#e)" stroke="#4d8bff" stroke-opacity=".4"/>
    <rect x="238" y="26" width="216" height="84" rx="6" fill="#4d8bff" opacity=".15" stroke="#4d8bff" stroke-opacity=".36"/>
    <rect x="238" y="118" width="103" height="94" rx="6" fill="#c3d8ff" opacity=".11" stroke="#4d8bff" stroke-opacity=".3"/>
    <rect x="349" y="118" width="105" height="94" rx="6" fill="#4d8bff" opacity=".12" stroke="#4d8bff" stroke-opacity=".3"/>
    <rect x="26" y="158" width="202" height="134" rx="6" fill="#c3d8ff" opacity=".10" stroke="#4d8bff" stroke-opacity=".32"/>
    <rect x="238" y="220" width="216" height="72" rx="6" fill="#4d8bff" opacity=".10" stroke="#4d8bff" stroke-opacity=".3"/>
    <text x="36" y="52" font-family="Arial,Helvetica,sans-serif" font-size="13" fill="#ffffff" font-weight="700">SAMSUNG</text>
    <text x="36" y="78" font-family="Arial,Helvetica,sans-serif" font-size="21" fill="#ffffff" font-weight="700">Exynos 2600</text>
    <text x="36" y="278" font-family="Arial,Helvetica,sans-serif" font-size="10" fill="#8fa0b5">ILLUSTRATIVE DIE MAP • SOURCE DATA LINKED IN PROFILE</text>
    </svg>