<svg xmlns="http://www.w3.org/2000/svg" width="480" height="320" viewBox="0 0 480 320">
    <defs>
      <linearGradient id="g" x1="0" y1="0" x2="1" y2="1">
        <stop offset="0" stop-color="#080c13"/><stop offset="1" stop-color="#121a26"/>
      </linearGradient>
      <linearGradient id="e" x1="0" y1="0" x2="1" y2="1">
        <stop offset="0" stop-color="#e55b42" stop-opacity=".62"/><stop offset="1" stop-color="#ffc2b6" stop-opacity=".16"/>
      </linearGradient>
      <pattern id="p" width="10" height="10" patternUnits="userSpaceOnUse">
        <path d="M10 0H0V10" fill="none" stroke="#ffc2b6" stroke-opacity=".07" stroke-width=".7"/>
      </pattern>
    </defs>
    <rect width="480" height="320" rx="18" fill="url(#g)"/>
    <rect x="14" y="14" width="452" height="292" rx="11" fill="#0a0f16" stroke="#e55b42" stroke-opacity=".5"/>
    <rect x="20" y="20" width="440" height="280" rx="8" fill="url(#p)"/>
    <rect x="204" y="204" width="42" height="46" rx="2" fill="#ffc2b6" opacity="0.18"/><rect x="304" y="61" width="59" height="54" rx="2" fill="#ffc2b6" opacity="0.26"/><rect x="196" y="244" width="49" height="14" rx="2" fill="#ffc2b6" opacity="0.21"/><rect x="262" y="168" width="50" height="37" rx="2" fill="#ffc2b6" opacity="0.25"/><rect x="313" y="145" width="29" height="18" rx="2" fill="#ffc2b6" opacity="0.24"/><rect x="184" y="104" width="41" height="35" rx="2" fill="#ffc2b6" opacity="0.31"/><rect x="188" y="107" width="36" height="27" rx="2" fill="#ffc2b6" opacity="0.25"/><rect x="161" y="208" width="19" height="53" rx="2" fill="#ffc2b6" opacity="0.21"/><rect x="122" y="77" width="34" height="49" rx="2" fill="#ffc2b6" opacity="0.18"/><rect x="208" y="213" width="50" height="20" rx="2" fill="#ffc2b6" opacity="0.17"/><rect x="198" y="225" width="61" height="36" rx="2" fill="#ffc2b6" opacity="0.12"/><rect x="115" y="156" width="66" height="40" rx="2" fill="#ffc2b6" opacity="0.24"/><rect x="111" y="68" width="37" height="48" rx="2" fill="#ffc2b6" opacity="0.17"/><rect x="55" y="94" width="78" height="36" rx="2" fill="#ffc2b6" opacity="0.19"/><rect x="244" y="129" width="32" height="22" rx="2" fill="#ffc2b6" opacity="0.31"/><rect x="258" y="61" width="60" height="37" rx="2" fill="#ffc2b6" opacity="0.11"/><rect x="221" y="74" width="32" height="42" rx="2" fill="#ffc2b6" opacity="0.25"/><rect x="24" y="39" width="75" height="41" rx="2" fill="#ffc2b6" opacity="0.24"/><rect x="221" y="139" width="39" height="54" rx="2" fill="#ffc2b6" opacity="0.11"/><rect x="231" y="238" width="37" height="43" rx="2" fill="#ffc2b6" opacity="0.20"/><rect x="108" y="203" width="20" height="27" rx="2" fill="#ffc2b6" opacity="0.21"/><rect x="277" y="223" width="31" height="32" rx="2" fill="#ffc2b6" opacity="0.16"/><rect x="41" y="194" width="49" height="51" rx="2" fill="#ffc2b6" opacity="0.21"/><rect x="86" y="150" width="50" height="50" rx="2" fill="#ffc2b6" opacity="0.24"/><rect x="270" y="226" width="33" height="53" rx="2" fill="#ffc2b6" opacity="0.23"/><rect x="59" y="43" width="45" height="55" rx="2" fill="#ffc2b6" opacity="0.30"/><rect x="282" y="185" width="29" height="53" rx="2" fill="#ffc2b6" opacity="0.11"/><rect x="265" y="218" width="40" height="52" rx="2" fill="#ffc2b6" opacity="0.17"/><rect x="273" y="50" width="37" height="53" rx="2" fill="#ffc2b6" opacity="0.21"/><rect x="183" y="248" width="52" height="44" rx="2" fill="#ffc2b6" opacity="0.32"/><rect x="195" y="212" width="30" height="51" rx="2" fill="#ffc2b6" opacity="0.14"/><rect x="337" y="215" width="23" height="27" rx="2" fill="#ffc2b6" opacity="0.11"/><rect x="224" y="42" width="42" height="37" rx="2" fill="#ffc2b6" opacity="0.29"/><rect x="342" y="71" width="51" height="46" rx="2" fill="#ffc2b6" opacity="0.13"/><rect x="57" y="172" width="26" height="16" rx="2" fill="#ffc2b6" opacity="0.29"/><rect x="195" y="139" width="28" height="40" rx="2" fill="#ffc2b6" opacity="0.10"/><rect x="45" y="36" width="41" height="54" rx="2" fill="#ffc2b6" opacity="0.11"/><rect x="269" y="110" width="46" height="56" rx="2" fill="#ffc2b6" opacity="0.19"/><rect x="140" y="21" width="18" height="52" rx="2" fill="#ffc2b6" opacity="0.33"/><rect x="157" y="146" width="27" height="13" rx="2" fill="#ffc2b6" opacity="0.23"/><rect x="213" y="175" width="70" height="48" rx="2" fill="#ffc2b6" opacity="0.25"/><rect x="42" y="66" width="32" height="13" rx="2" fill="#ffc2b6" opacity="0.21"/>
    <rect x="26" y="26" width="202" height="124" rx="6" fill="url(#e)" stroke="#e55b42" stroke-opacity=".4"/>
    <rect x="238" y="26" width="216" height="84" rx="6" fill="#e55b42" opacity=".15" stroke="#e55b42" stroke-opacity=".36"/>
    <rect x="238" y="118" width="103" height="94" rx="6" fill="#ffc2b6" opacity=".11" stroke="#e55b42" stroke-opacity=".3"/>
    <rect x="349" y="118" width="105" height="94" rx="6" fill="#e55b42" opacity=".12" stroke="#e55b42" stroke-opacity=".3"/>
    <rect x="26" y="158" width="202" height="134" rx="6" fill="#ffc2b6" opacity=".10" stroke="#e55b42" stroke-opacity=".32"/>
    <rect x="238" y="220" width="216" height="72" rx="6" fill="#e55b42" opacity=".10" stroke="#e55b42" stroke-opacity=".3"/>
    <text x="36" y="52" font-family="Arial,Helvetica,sans-serif" font-size="13" fill="#ffffff" font-weight="700">AMD</text>
    <text x="36" y="78" font-family="Arial,Helvetica,sans-serif" font-size="21" fill="#ffffff" font-weight="700">Medusa Point</text>
    <text x="36" y="278" font-family="Arial,Helvetica,sans-serif" font-size="10" fill="#8fa0b5">ILLUSTRATIVE DIE MAP • SOURCE DATA LINKED IN PROFILE</text>
    </svg>