<svg xmlns="http://www.w3.org/2000/svg" width="480" height="320" viewBox="0 0 480 320">
    <defs>
      <linearGradient id="g" x1="0" y1="0" x2="1" y2="1">
        <stop offset="0" stop-color="#080c13"/><stop offset="1" stop-color="#121a26"/>
      </linearGradient>
      <linearGradient id="e" x1="0" y1="0" x2="1" y2="1">
        <stop offset="0" stop-color="#ef4d64" stop-opacity=".62"/><stop offset="1" stop-color="#ffb3bf" stop-opacity=".16"/>
      </linearGradient>
      <pattern id="p" width="10" height="10" patternUnits="userSpaceOnUse">
        <path d="M10 0H0V10" fill="none" stroke="#ffb3bf" stroke-opacity=".07" stroke-width=".7"/>
      </pattern>
    </defs>
    <rect width="480" height="320" rx="18" fill="url(#g)"/>
    <rect x="14" y="14" width="452" height="292" rx="11" fill="#0a0f16" stroke="#ef4d64" stroke-opacity=".5"/>
    <rect x="20" y="20" width="440" height="280" rx="8" fill="url(#p)"/>
    <rect x="31" y="139" width="35" height="36" rx="2" fill="#ffb3bf" opacity="0.27"/><rect x="131" y="165" width="70" height="38" rx="2" fill="#ffb3bf" opacity="0.21"/><rect x="294" y="99" width="67" height="46" rx="2" fill="#ffb3bf" opacity="0.28"/><rect x="75" y="43" width="46" height="52" rx="2" fill="#ffb3bf" opacity="0.18"/><rect x="332" y="249" width="33" height="29" rx="2" fill="#ffb3bf" opacity="0.27"/><rect x="169" y="18" width="76" height="12" rx="2" fill="#ffb3bf" opacity="0.29"/><rect x="357" y="241" width="56" height="41" rx="2" fill="#ffb3bf" opacity="0.18"/><rect x="328" y="62" width="62" height="41" rx="2" fill="#ffb3bf" opacity="0.14"/><rect x="129" y="114" width="40" height="24" rx="2" fill="#ffb3bf" opacity="0.19"/><rect x="182" y="128" width="39" height="29" rx="2" fill="#ffb3bf" opacity="0.15"/><rect x="107" y="142" width="29" height="17" rx="2" fill="#ffb3bf" opacity="0.26"/><rect x="200" y="95" width="51" height="51" rx="2" fill="#ffb3bf" opacity="0.17"/><rect x="63" y="112" width="54" height="46" rx="2" fill="#ffb3bf" opacity="0.20"/><rect x="40" y="24" width="55" height="18" rx="2" fill="#ffb3bf" opacity="0.29"/><rect x="98" y="133" width="46" height="55" rx="2" fill="#ffb3bf" opacity="0.12"/><rect x="39" y="32" width="68" height="45" rx="2" fill="#ffb3bf" opacity="0.28"/><rect x="324" y="93" width="75" height="32" rx="2" fill="#ffb3bf" opacity="0.11"/><rect x="134" y="108" width="60" height="18" rx="2" fill="#ffb3bf" opacity="0.12"/><rect x="46" y="92" width="54" height="20" rx="2" fill="#ffb3bf" opacity="0.24"/><rect x="47" y="217" width="34" height="41" rx="2" fill="#ffb3bf" opacity="0.27"/><rect x="115" y="81" width="39" height="43" rx="2" fill="#ffb3bf" opacity="0.15"/><rect x="68" y="89" width="49" height="25" rx="2" fill="#ffb3bf" opacity="0.12"/><rect x="227" y="202" width="33" height="43" rx="2" fill="#ffb3bf" opacity="0.11"/><rect x="26" y="88" width="75" height="35" rx="2" fill="#ffb3bf" opacity="0.11"/><rect x="233" y="92" width="41" height="40" rx="2" fill="#ffb3bf" opacity="0.16"/><rect x="269" y="247" width="34" height="20" rx="2" fill="#ffb3bf" opacity="0.17"/><rect x="19" y="227" width="29" height="34" rx="2" fill="#ffb3bf" opacity="0.14"/><rect x="326" y="109" width="64" height="35" rx="2" fill="#ffb3bf" opacity="0.24"/><rect x="52" y="117" width="31" height="49" rx="2" fill="#ffb3bf" opacity="0.25"/><rect x="165" y="120" width="55" height="22" rx="2" fill="#ffb3bf" opacity="0.16"/><rect x="203" y="154" width="30" height="41" rx="2" fill="#ffb3bf" opacity="0.15"/><rect x="230" y="32" width="48" height="45" rx="2" fill="#ffb3bf" opacity="0.26"/><rect x="218" y="240" width="28" height="50" rx="2" fill="#ffb3bf" opacity="0.24"/><rect x="285" y="232" width="77" height="17" rx="2" fill="#ffb3bf" opacity="0.19"/><rect x="66" y="72" width="40" height="35" rx="2" fill="#ffb3bf" opacity="0.19"/><rect x="235" y="176" width="76" height="41" rx="2" fill="#ffb3bf" opacity="0.11"/><rect x="299" y="212" width="39" height="25" rx="2" fill="#ffb3bf" opacity="0.10"/><rect x="336" y="112" width="73" height="46" rx="2" fill="#ffb3bf" opacity="0.12"/><rect x="210" y="19" width="56" height="20" rx="2" fill="#ffb3bf" opacity="0.18"/><rect x="276" y="100" width="67" height="17" rx="2" fill="#ffb3bf" opacity="0.13"/><rect x="353" y="96" width="31" height="18" rx="2" fill="#ffb3bf" opacity="0.19"/><rect x="140" y="78" width="55" height="18" rx="2" fill="#ffb3bf" opacity="0.17"/>
    <rect x="26" y="26" width="202" height="124" rx="6" fill="url(#e)" stroke="#ef4d64" stroke-opacity=".4"/>
    <rect x="238" y="26" width="216" height="84" rx="6" fill="#ef4d64" opacity=".15" stroke="#ef4d64" stroke-opacity=".36"/>
    <rect x="238" y="118" width="103" height="94" rx="6" fill="#ffb3bf" opacity=".11" stroke="#ef4d64" stroke-opacity=".3"/>
    <rect x="349" y="118" width="105" height="94" rx="6" fill="#ef4d64" opacity=".12" stroke="#ef4d64" stroke-opacity=".3"/>
    <rect x="26" y="158" width="202" height="134" rx="6" fill="#ffb3bf" opacity=".10" stroke="#ef4d64" stroke-opacity=".32"/>
    <rect x="238" y="220" width="216" height="72" rx="6" fill="#ef4d64" opacity=".10" stroke="#ef4d64" stroke-opacity=".3"/>
    <text x="36" y="52" font-family="Arial,Helvetica,sans-serif" font-size="13" fill="#ffffff" font-weight="700">QUALCOMM</text>
    <text x="36" y="78" font-family="Arial,Helvetica,sans-serif" font-size="21" fill="#ffffff" font-weight="700">Snapdragon 4 Gen 5</text>
    <text x="36" y="278" font-family="Arial,Helvetica,sans-serif" font-size="10" fill="#8fa0b5">ILLUSTRATIVE DIE MAP • SOURCE DATA LINKED IN PROFILE</text>
    </svg>